<?xml version="1.0" encoding="utf-8"?>
<!-- Generator: Adobe Illustrator 22.0.0, SVG Export Plug-In . SVG Version: 6.00 Build 0)  -->
<svg version="1.1" id="Layer_1" xmlns="http://www.w3.org/2000/svg" xmlns:xlink="http://www.w3.org/1999/xlink" x="0px" y="0px"
	 viewBox="0 0 59.8 80" style="enable-background:new 0 0 59.8 80;" xml:space="preserve">
<style type="text/css">
	.st0{opacity:0.5492;fill:#A7A9AC;}
</style>
<g>
	<polygon class="st0" points="57.5,80 59.7,76.2 59.7,76 57.4,80 	"/>
	<path class="st0" d="M59.7,0.5l-2.4,4.2h-4.8c0-0.3-0.3-0.6-0.6-0.6c-0.1,0-0.2,0-0.3,0.1L49.2,0l0,0h-0.1l0,0h-4.9c0,0,0,0,0,0
		h-0.6h-0.1h-0.4c0,0,0,0,0,0.1c0,0.2,0.1,0.3,0.2,0.4l-2.4,4.3h-5.4L32.9,0l0,0h-0.1l0,0h-5.5l0,0h-0.1l0,0l-2.7,4.7h-5.4L16.5,0
		l0,0h-0.1l0,0h-5.5l0,0h-0.1l0,0L8.2,4.7H2.8L0.1,0l0,0H0l0,0l0,0l2.7,4.8h5.5l2.7,4.7h5.5l2.7,4.7l-2.5,4.4
		c-0.1,0-0.1-0.1-0.2-0.1c-0.2,0-0.4,0.2-0.4,0.4h-5.1l-2.5,4.3c-0.1,0-0.1,0-0.2,0c-0.1,0-0.3,0.1-0.4,0.2
		c-0.1,0.1-0.2,0.2-0.2,0.4c0,0.1,0.1,0.3,0.2,0.3c0.1,0.1,0.2,0.2,0.4,0.2c0.1,0,0.1,0,0.2,0l2.5,4.3h5.5l2.5,4.3
		c-0.1,0.1-0.2,0.2-0.2,0.4c0,0.2,0.1,0.3,0.2,0.4l-2.5,4.3h-5.5l-2.7,4.7l0,0l2.5,4.3c-0.2,0.1-0.3,0.2-0.3,0.4
		c0,0.2,0.1,0.4,0.3,0.4L8.2,52l0,0l2.7,4.8h5.5l2.7-4.7h5.5l2.7,4.7l-2.4,4.2c-0.1-0.1-0.2-0.1-0.3-0.1c-0.4,0-0.6,0.3-0.6,0.6
		c0,0.4,0.3,0.6,0.6,0.6c0.1,0,0.2,0,0.3-0.1l2.2,3.8c-0.1,0.1-0.2,0.2-0.2,0.4c0,0.2,0.1,0.3,0.2,0.4l-2.5,4.3h-5.5l-2.7-4.7h-5.5
		l-2.5,4.4c-0.1,0-0.1-0.1-0.2-0.1c-0.2,0-0.4,0.2-0.4,0.4H2.7L0,75.6l0,0L2.5,80h0.1l-2.5-4.4l2.7-4.7h5c0,0.2,0.2,0.4,0.4,0.4
		c0,0,0.1,0,0.1,0l2.5,4.3L8.3,80h0.1h0.1h0.1l2.5-4.4h5.4l2.4,4.2c0,0-0.1,0.1-0.1,0.1h0.1h0.1h0.1H19H19h0.5h0.1
		c-0.1-0.2-0.3-0.3-0.5-0.3c-0.1,0-0.2,0-0.2,0.1l-2.4-4.2l2.7-4.7h5.4l2.4,4.1c-0.2,0.1-0.3,0.3-0.3,0.5c0,0.2,0.1,0.4,0.3,0.5
		L24.7,80h0.1h0.1h0.1l2.2-3.8c0.1,0,0.1,0,0.2,0c0.3,0,0.6-0.3,0.6-0.6h4.8l2.5,4.4h0.1h0.1h0.1l-2.5-4.4l2.7-4.7h4.9
		c0,0.2,0.2,0.4,0.4,0.4c0.1,0,0.1,0,0.2,0l2.5,4.3l-2.5,4.3c0,0-0.1,0-0.1,0c-0.1,0-0.3,0.1-0.4,0.2H41h0.1h0.1h0.1h0.1
		c0,0-0.1,0-0.1-0.1l2.5-4.3h4.9c0,0.2,0.2,0.4,0.5,0.4c0.1,0,0.1,0,0.2,0l2.3,4c0,0,0,0,0,0h0.1h0.1h0.1h0.1h0.3
		c-0.1-0.1-0.2-0.1-0.3-0.1c0,0-0.1,0-0.1,0l-2.3-4c0.1-0.1,0.2-0.2,0.2-0.3c0-0.1-0.1-0.3-0.2-0.3l2.3-3.9c0.1,0,0.1,0,0.2,0
		c0.3,0,0.5-0.2,0.5-0.4h4.9l2.4,4.2v-0.2l-2.3-4.1l2.3-4.1v-0.2l-2.4,4.2h-4.9c0-0.2-0.2-0.4-0.5-0.4c-0.1,0-0.1,0-0.2,0l-2.5-4.3
		l2.5-4.3c0,0,0.1,0,0.1,0c0.2,0,0.4-0.2,0.5-0.4h5l2.4,4.2v-0.2l-2.3-4.1l2.3-4.1v-0.2l-2.4,4.2h-5c0-0.2-0.2-0.4-0.5-0.4
		c0,0-0.1,0-0.1,0l-2.2-3.9c0.1-0.1,0.2-0.2,0.2-0.4c0-0.2-0.1-0.3-0.2-0.4l2.5-4.3h5.4l2.4,4.2V56L57.3,52l2.3-4.1v-0.2l-2.4,4.2
		h-5.4l-2.7-4.7l2.4-4.2c0.1,0,0.1,0.1,0.2,0.1c0.3,0,0.5-0.2,0.5-0.5h4.9l2.4,4.2v-0.2l-2.3-4.1l2.3-4.1v-0.2l-2.4,4.2h-4.9
		c0-0.3-0.3-0.5-0.5-0.5c-0.1,0-0.2,0-0.2,0.1l-2.2-3.9c0.1-0.1,0.1-0.2,0.1-0.3c0-0.1-0.1-0.3-0.2-0.3l2.5-4.3h4.9
		c0,0.2,0.2,0.4,0.5,0.4c0.1,0,0.1,0,0.2,0l2.2,3.8v-0.2l-2.1-3.7c0.1-0.1,0.2-0.2,0.2-0.4c0-0.2-0.1-0.3-0.2-0.4l2.1-3.7v-0.2
		l-2.2,3.8c-0.1,0-0.1,0-0.2,0c-0.3,0-0.5,0.2-0.5,0.4h-4.9l-2.4-4.2c0.1-0.1,0.3-0.3,0.3-0.5c0-0.2-0.1-0.4-0.3-0.5l2.4-4.2h5.4
		l2.4,4.2v-0.2l-2.3-4.1l2.3-4.1v-0.2l-2.4,4.2h-5.4l-2.4-4.2c0.1-0.1,0.2-0.3,0.2-0.4c0-0.2-0.1-0.3-0.2-0.4l2.2-3.9
		c0,0,0.1,0,0.1,0c0.2,0,0.4-0.2,0.4-0.4h5l2.4,4.2v-0.2l-2.3-4.1l2.3-4.1V9.9l-2.4,4.2h-5c0-0.2-0.2-0.4-0.4-0.4c0,0-0.1,0-0.1,0
		l-2.5-4.3l2.4-4.2c0.1,0,0.2,0.1,0.3,0.1c0.3,0,0.6-0.3,0.6-0.6h4.8L59.7,9V8.8l-2.3-4.1l2.3-4.1V0.5z M11,66.2h5.4l2.7,4.7
		l-2.7,4.7H11l-2.5-4.3c0.1-0.1,0.2-0.2,0.2-0.3c0-0.1-0.1-0.3-0.2-0.3L11,66.2z M51.6,14.5l-2.2,3.9c-0.1,0-0.2-0.1-0.2-0.1
		c-0.3,0-0.5,0.2-0.6,0.5h-4.3c0-0.3-0.3-0.5-0.5-0.5c-0.1,0-0.2,0-0.2,0.1L41,14.2l2.7-4.7h5.4l2.5,4.3c-0.1,0.1-0.2,0.2-0.2,0.3
		C51.4,14.4,51.5,14.5,51.6,14.5z M51.5,42.9l-2.4,4.3h-5.4L41,42.5l2.7-4.7h4.9c0,0.2,0.2,0.4,0.4,0.4c0.1,0,0.1,0,0.2,0l2.2,3.9
		c-0.1,0.1-0.2,0.2-0.2,0.4C51.3,42.7,51.4,42.8,51.5,42.9z M51.5,61.8l-2.5,4.3h-5.4L41,61.4l2.4-4.3c0.1,0,0.1,0,0.2,0
		c0.3,0,0.5-0.2,0.5-0.5h4.5c0,0.2,0.2,0.4,0.5,0.4c0.1,0,0.1,0,0.1,0l2.2,3.9c-0.1,0.1-0.2,0.2-0.2,0.4
		C51.3,61.6,51.4,61.7,51.5,61.8z M51.5,71.2l-2.3,3.9c-0.1,0-0.1,0-0.2,0c-0.2,0-0.4,0.2-0.5,0.4h-4.9l-2.5-4.3
		c0.1-0.1,0.2-0.2,0.2-0.3c0-0.1-0.1-0.3-0.1-0.3l2.5-4.3h5.4l2.5,4.3c-0.1,0.1-0.2,0.2-0.2,0.4C51.4,71,51.4,71.1,51.5,71.2z
		 M40.9,70.4c-0.2,0-0.4,0.2-0.4,0.4h-4.9l-2.7-4.7l2.7-4.7h5.4l2.7,4.7l-2.5,4.3C41,70.4,41,70.4,40.9,70.4z M32.8,46.7
		c-0.3,0-0.6,0.2-0.6,0.5h-4.9l-2.7-4.7l2.5-4.3c0.1,0,0.1,0,0.2,0c0.2,0,0.4-0.2,0.5-0.4h4.9l2.4,4.2c-0.1,0.1-0.2,0.3-0.2,0.5
		c0,0.2,0.1,0.4,0.2,0.5L33,46.7C32.9,46.7,32.9,46.7,32.8,46.7z M43.3,19.4l-2.4,4.2h-4.8c0-0.3-0.3-0.6-0.6-0.6
		c-0.1,0-0.2,0-0.3,0.1L33,19.2c0.1-0.1,0.1-0.2,0.1-0.3c0-0.1,0-0.2-0.1-0.3l2.5-4.4h5.4l2.4,4.2c-0.1,0.1-0.2,0.3-0.2,0.4
		C43.1,19.1,43.2,19.3,43.3,19.4z M43.1,28.4c0,0.2,0.1,0.3,0.2,0.4l-2.2,3.8c-0.1,0-0.1-0.1-0.2-0.1c-0.3,0-0.5,0.2-0.5,0.5h-4.4
		c0-0.2-0.2-0.4-0.5-0.4c-0.1,0-0.1,0-0.2,0l-2.4-4.3l2.4-4.2c0.1,0,0.2,0.1,0.3,0.1c0.3,0,0.6-0.2,0.6-0.5h4.8l2.4,4.2
		C43.2,28.1,43.1,28.2,43.1,28.4z M36.1,42.5c0-0.3-0.3-0.6-0.6-0.6c-0.1,0-0.2,0-0.3,0.1l-2.4-4.2l2.4-4.3c0,0,0.1,0,0.2,0
		c0.3,0,0.5-0.2,0.5-0.4h4.5c0,0.3,0.3,0.5,0.5,0.5c0.1,0,0.2,0,0.2-0.1l2.4,4.2l-2.7,4.7H36.1z M40.9,14.2h-5.4l-2.7-4.7l2.7-4.7
		h5.4l2.7,4.7L40.9,14.2z M32.9,18.6c0,0-0.1-0.1-0.1-0.1c-0.2,0-0.3,0.2-0.4,0.3h-4.6c0-0.2-0.2-0.4-0.4-0.4c-0.1,0-0.1,0-0.2,0.1
		l-2.5-4.3l2.7-4.7h5.4l2.7,4.7L32.9,18.6z M27.3,19.4c0.2,0,0.4-0.2,0.4-0.4h4.6c0,0.2,0.2,0.3,0.4,0.3c0.1,0,0.1,0,0.1-0.1
		l2.2,3.9c-0.1,0.1-0.2,0.3-0.2,0.5c0,0.2,0.1,0.3,0.2,0.5l-2.4,4.2h-5.4l-2.7-4.7l2.5-4.3C27.2,19.3,27.3,19.4,27.3,19.4z
		 M32.7,28.4l2.5,4.3c-0.1,0.1-0.2,0.2-0.2,0.4c0,0.2,0.1,0.3,0.2,0.4l-2.5,4.3h-4.9c0-0.2-0.2-0.4-0.5-0.4c-0.1,0-0.1,0-0.2,0
		l-2.5-4.3l2.7-4.7H32.7z M33.1,46.8l2.1-3.7c0.1,0,0.2,0.1,0.3,0.1c0.3,0,0.6-0.2,0.6-0.6h4.8l2.7,4.7l-2.5,4.4
		c0,0-0.1-0.1-0.1-0.1c-0.2,0-0.3,0.2-0.4,0.3H36c0-0.3-0.3-0.5-0.6-0.5c-0.1,0-0.1,0-0.2,0l-2.1-3.7c0.2-0.1,0.3-0.3,0.3-0.5
		C33.4,47.1,33.3,46.9,33.1,46.8z M35.4,52.5c0.3,0,0.5-0.2,0.6-0.5h4.6c0,0.2,0.2,0.3,0.4,0.3c0.1,0,0.1,0,0.1-0.1l2.3,4
		c-0.1,0.1-0.2,0.2-0.2,0.4c0,0.1,0.1,0.3,0.2,0.4l-2.5,4.3h-5.4l-2.7-4.7l2.4-4.2C35.3,52.5,35.4,52.5,35.4,52.5z M49.2,56.2
		c-0.3,0-0.4,0.2-0.5,0.4h-4.5c0-0.3-0.2-0.4-0.5-0.4c-0.1,0-0.1,0-0.2,0l-2.3-4c0.1-0.1,0.1-0.2,0.1-0.3c0-0.1,0-0.2-0.1-0.3
		l2.5-4.4h5.4l2.7,4.7l-2.4,4.3C49.3,56.2,49.2,56.2,49.2,56.2z M49.1,37.4c-0.2,0-0.4,0.2-0.4,0.4h-4.9l-2.4-4.3
		c0.1-0.1,0.2-0.2,0.2-0.4c0-0.2-0.1-0.3-0.2-0.4l2.2-3.8c0.1,0,0.1,0.1,0.2,0.1c0.3,0,0.5-0.2,0.5-0.5h4.4c0,0.3,0.3,0.5,0.6,0.5
		c0.1,0,0.1,0,0.2,0l2.4,4.2l-2.5,4.3C49.2,37.4,49.2,37.4,49.1,37.4z M49.2,27.8c-0.3,0-0.5,0.2-0.6,0.5h-4.4
		c0-0.3-0.3-0.5-0.5-0.5c-0.1,0-0.2,0-0.2,0.1L41,23.7l2.4-4.2c0.1,0,0.1,0.1,0.2,0.1c0.3,0,0.5-0.2,0.5-0.5h4.3
		c0,0.3,0.3,0.5,0.6,0.5c0.1,0,0.2,0,0.2-0.1l2.4,4.2l-2.4,4.2C49.3,27.8,49.2,27.8,49.2,27.8z M51.5,4.3c-0.1,0.1-0.2,0.3-0.2,0.5
		c0,0.2,0.1,0.4,0.2,0.5l-2.4,4.2h-5.4L41,4.8l2.4-4.2c0.1,0,0.1,0.1,0.2,0.1c0.3,0,0.5-0.2,0.5-0.5h4.9L51.5,4.3z M32.7,0.1
		l2.7,4.7l-2.7,4.7h-5.4l-2.7-4.7l2.7-4.7H32.7z M11,9.4L8.3,4.8L11,0.1h5.4L19,4.8l-2.7,4.7H11z M19.2,4.8h5.4l2.7,4.7l-2.7,4.7
		h-5.4l-2.7-4.7L19.2,4.8z M19.2,14.3h5.4l2.5,4.3c-0.1,0.1-0.1,0.2-0.1,0.3c0,0.1,0.1,0.2,0.1,0.3l-2.5,4.3h-4.9
		c0-0.3-0.3-0.5-0.5-0.5c-0.1,0-0.1,0-0.2,0l-2.2-3.9c0.1-0.1,0.1-0.2,0.1-0.3c0-0.1,0-0.2-0.1-0.3L19.2,14.3z M11,28.3l-2.4-4.3
		c0.1-0.1,0.2-0.2,0.2-0.4c0-0.2-0.1-0.3-0.2-0.4L11,19h5c0,0.2,0.2,0.4,0.4,0.4c0.1,0,0.1,0,0.1-0.1l2.2,3.9
		c-0.1,0.1-0.2,0.3-0.2,0.4c0,0.2,0.1,0.3,0.2,0.4l-2.4,4.2H11z M16.5,28.4l2.4-4.2c0.1,0,0.1,0,0.2,0c0.3,0,0.5-0.2,0.5-0.5h4.9
		l2.7,4.7L24.5,33h-4.9c0-0.2-0.2-0.4-0.4-0.4c-0.1,0-0.1,0-0.2,0L16.5,28.4z M19,33.5c0.1,0,0.1,0,0.2,0c0.2,0,0.4-0.2,0.4-0.4h4.9
		l2.5,4.3c-0.1,0.1-0.2,0.2-0.2,0.3c0,0.1,0.1,0.3,0.2,0.3l-2.5,4.3h-5.4l-2.7-4.7L19,33.5z M8.3,42.5l2.7-4.7h5.4l2.7,4.7l-2.4,4.3
		c0,0-0.1,0-0.1,0c-0.3,0-0.5,0.2-0.5,0.4h-4.6c0-0.3-0.2-0.5-0.5-0.5c-0.1,0-0.1,0-0.2,0L8.3,42.5z M16.3,56.6H11L8.3,52l2.4-4.2
		c0.1,0,0.1,0,0.2,0c0.3,0,0.5-0.2,0.5-0.5h4.6c0,0.2,0.2,0.4,0.5,0.4c0.1,0,0.1,0,0.1,0L19,52L16.3,56.6z M19.2,51.9l-2.5-4.3
		c0.1-0.1,0.2-0.2,0.2-0.4c0-0.2-0.1-0.3-0.2-0.4l2.5-4.3h5.4l2.7,4.7l-2.7,4.7H19.2z M27.3,47.3h4.9c0,0.3,0.3,0.5,0.6,0.5
		c0.1,0,0.1,0,0.2,0l2.1,3.7c-0.1,0.1-0.2,0.3-0.2,0.5c0,0.2,0.1,0.4,0.2,0.5l-2.4,4.2h-5.4L24.7,52L27.3,47.3z M25,61.9
		c0.1-0.1,0.2-0.3,0.2-0.5c0-0.2-0.1-0.4-0.2-0.5l2.4-4.2h5.4l2.7,4.7l-2.7,4.7h-4.9c0-0.2-0.2-0.4-0.4-0.4c-0.1,0-0.1,0-0.2,0
		L25,61.9z M27.1,66.6c0.1,0,0.1,0,0.2,0c0.2,0,0.4-0.2,0.4-0.4h4.9l2.7,4.7l-2.7,4.7h-4.8c0-0.3-0.3-0.6-0.6-0.6
		c-0.1,0-0.2,0-0.2,0l-2.4-4.1L27.1,66.6z"/>
	<path class="st0" d="M59.7,66.4v-0.5c-0.1,0.1-0.1,0.2-0.1,0.3S59.6,66.3,59.7,66.4z"/>
</g>
</svg>
